<?xml version="1.0" encoding="UTF-8" standalone="no"?>
<svg
	xmlns:svg="http://www.w3.org/2000/svg"
	xmlns="http://www.w3.org/2000/svg"
	width="50px"
	viewBox="0 0 225 340"
	version="1.1">
<g style="fill:black;stroke:none">
	<ellipse cx="112.5" cy="169.5" rx="111.2" ry="168" style="fill:none;stroke:black;stroke-width:2.6"/>
	<circle cx="64.2" cy="240.5" r="4.2"/>
	<circle cx="70.9" cy="234.1" r="4.2"/>
	<circle cx="70.9" cy="246.9" r="4.2"/>
	<circle cx="77.6" cy="240.5" r="4.2"/>
	<circle cx="139.3" cy="78.1" r="4.2"/>
	<circle cx="146" cy="71.5" r="4.2"/>
	<circle cx="146" cy="84.7" r="4.2"/>
	<circle cx="152.7" cy="78.1" r="4.2"/>
	<path transform="scale(0.1) translate(3.5,0)"
		d="M 1244 334 C 1224 336 1162 456 1085 455 C 1033 455 1010 477 997 504 C 966 567 1005 638 1044 657 C 1093 560 1132 490 1167 480 C 1212 467 1262 351 1247 335 C 1247 334 1245 334 1244 334 z M 1181 570 C 1102 681 1045 767 1045 767 C 996 737 939 729 933 740 C 928 752 981 807 980 927 C 780 926 488 928 442 878 C 442 878 416 825 403 884 C 360 1075 141 1140 142 1172 C 144 1216 426 1111 474 1055 C 505 1020 581 1009 647 1008 C 681 1008 817 1007 980 1010 L 979 1064 C 651 1073 536 1180 538 1323 C 542 1532 647 1618 895 1616 C 739 1798 605 1904 492 1954 C 334 2024 162 1975 163 2006 C 163 2022 226 2010 414 2105 C 580 2189 805 1829 974 1664 L 967 2431 C 966 2608 926 2853 815 2959 C 819 2880 775 2853 721 2836 C 659 2817 503 2959 732 3023 C 921 3073 1054 2764 1074 2649 C 1086 2580 1114 2553 1117 2531 C 1356 2647 1521 2518 1510 2501 C 1498 2462 1144 2556 1147 2211 C 1147 2137 1152 1913 1157 1655 C 1390 1896 1366 1928 1516 2061 C 1683 2209 1932 2157 1930 2132 C 1926 2094 1815 2226 1215 1630 C 1551 1664 1589 1459 1593 1339 C 1600 1167 1387 1076 1169 1079 C 1170 1056 1170 1037 1170 1014 C 1416 1022 1658 1037 1683 1069 C 1744 1151 2081 1327 2094 1300 C 2103 1279 1871 1214 1771 910 C 1762 882 1743 885 1727 904 C 1684 955 1347 941 1172 932 C 1177 742 1180 596 1181 570 z M 913 1139 C 937 1139 960 1140 979 1140 L 975 1532 C 775 1583 676 1511 682 1333 C 688 1156 813 1138 913 1139 z M 1222 1156 C 1340 1155 1441 1170 1445 1365 C 1451 1631 1211 1555 1168 1546 C 1165 1540 1162 1533 1160 1525 C 1162 1401 1165 1277 1167 1156 C 1186 1156 1204 1156 1222 1156 z" />
</g>
</svg>
